<svg xmlns="http://www.w3.org/2000/svg" viewBox="0 0 64 64">
  <rect width="64" height="64" rx="14" fill="#4b5647"/>
  <g transform="translate(8,12)" fill="#f3ead7">
    <path d="M8 20 C 8 6, 22 4, 28 12 C 34 4, 48 6, 48 20 C 48 33, 34 38, 28 38 C 22 38, 8 33, 8 20 Z" opacity="0.18"/>
    <path d="M10 24 C 10 14, 18 12, 22 16 L 22 13 L 28 18 L 34 13 L 34 16 C 38 12, 46 14, 46 24 C 46 32, 36 36, 28 36 C 20 36, 10 32, 10 24 Z" fill="#f3ead7"/>
    <circle cx="22" cy="24" r="2" fill="#283026"/>
    <circle cx="34" cy="24" r="2" fill="#283026"/>
    <path d="M26 28 C 27 30, 29 30, 30 28" stroke="#283026" stroke-width="1.6" stroke-linecap="round" fill="none"/>
  </g>
</svg>
